G04 #@! TF.FileFunction,Copper,L2,Bot,Signal*
%FSLAX46Y46*%
G04 Gerber Fmt 4.6, Leading zero omitted, Abs format (unit mm)*
G04 Created by KiCad (PCBNEW 4.0.6) date Saturday, 10 September 2022 'PMt' 16:36:59*
%MOMM*%
%LPD*%
G01*
G04 APERTURE LIST*
%ADD10C,0.100000*%
%ADD11R,2.032000X1.727200*%
%ADD12O,2.032000X1.727200*%
%ADD13R,2.032000X2.032000*%
%ADD14O,2.032000X2.032000*%
%ADD15R,1.727200X2.032000*%
%ADD16O,1.727200X2.032000*%
%ADD17O,2.500000X1.524000*%
%ADD18C,10.000000*%
%ADD19C,1.998980*%
%ADD20C,1.800000*%
%ADD21C,0.800000*%
%ADD22C,2.000000*%
%ADD23C,1.000000*%
G04 APERTURE END LIST*
D10*
D11*
X14100000Y27700000D03*
D12*
X14100000Y30240000D03*
X14100000Y32780000D03*
D13*
X19300000Y10300000D03*
D14*
X16760000Y10300000D03*
D13*
X19300000Y6800000D03*
D14*
X16760000Y6800000D03*
D15*
X41100000Y43700000D03*
D16*
X43640000Y43700000D03*
X46180000Y43700000D03*
X48720000Y43700000D03*
X51260000Y43700000D03*
D17*
X19480000Y34970000D03*
X19480000Y37510000D03*
X19480000Y40050000D03*
X19480000Y32430000D03*
X19480000Y29890000D03*
X19480000Y27350000D03*
D18*
X6100000Y36700000D03*
X59100000Y36700000D03*
D19*
X2600000Y15400000D03*
X2600000Y23020000D03*
D20*
X55100000Y1900000D03*
X16800000Y20900000D03*
X57700000Y43200000D03*
X51000000Y22300000D03*
X35700000Y31300000D03*
X13700000Y12500000D03*
X32800000Y23100000D03*
X48700000Y22100000D03*
D21*
X53500000Y1900000D02*
X20200000Y1900000D01*
X20200000Y1900000D02*
X16760000Y5340000D01*
X16760000Y5340000D02*
X16760000Y6800000D01*
X55100000Y1900000D02*
X53500000Y1900000D01*
X16800000Y20900000D02*
X16760000Y20900000D01*
X16760000Y20900000D02*
X16800000Y20900000D01*
X16800000Y20900000D02*
X16760000Y20900000D01*
X16760000Y10300000D02*
X16760000Y20900000D01*
X16760000Y20900000D02*
X16760000Y23060000D01*
X16420000Y32780000D02*
X17200000Y32000000D01*
X17200000Y32000000D02*
X17200000Y23600000D01*
X17200000Y23600000D02*
X17200000Y23500000D01*
X16420000Y32780000D02*
X14100000Y32780000D01*
X16760000Y23060000D02*
X17200000Y23500000D01*
X19480000Y29890000D02*
X26490000Y29890000D01*
X26490000Y29890000D02*
X35800000Y39200000D01*
X35800000Y39200000D02*
X35800000Y44000000D01*
X35800000Y44000000D02*
X38100000Y46300000D01*
X38100000Y46300000D02*
X54600000Y46300000D01*
X54600000Y46300000D02*
X57700000Y43200000D01*
X59100000Y32100000D02*
X59100000Y36700000D01*
X42000000Y31300000D02*
X40500000Y31300000D01*
X51000000Y22300000D02*
X42000000Y31300000D01*
X35700000Y31300000D02*
X40500000Y31300000D01*
X40500000Y31300000D02*
X40700000Y31500000D01*
X41100000Y36700000D02*
X41100000Y43700000D01*
X35700000Y31300000D02*
X41100000Y36700000D01*
D22*
X10800000Y15400000D02*
X13700000Y12500000D01*
X2600000Y15400000D02*
X10800000Y15400000D01*
D21*
X32800000Y23100000D02*
X33800000Y22100000D01*
X48700000Y22100000D02*
X33800000Y22100000D01*
X47000000Y22100000D02*
X48700000Y22100000D01*
D23*
G36*
X34810051Y44989949D02*
X34506569Y44535757D01*
X34400000Y44000000D01*
X34400000Y39779899D01*
X25910102Y31290000D01*
X21328777Y31290000D01*
X21639956Y31755712D01*
X21774080Y32430000D01*
X21639956Y33104288D01*
X21258002Y33675922D01*
X21221967Y33700000D01*
X21258002Y33724078D01*
X21639956Y34295712D01*
X21774080Y34970000D01*
X21639956Y35644288D01*
X21258002Y36215922D01*
X20686368Y36597876D01*
X20012080Y36732000D01*
X18947920Y36732000D01*
X18273632Y36597876D01*
X17701998Y36215922D01*
X17320044Y35644288D01*
X17185920Y34970000D01*
X17320044Y34295712D01*
X17701998Y33724078D01*
X17738033Y33700000D01*
X17701998Y33675922D01*
X17320044Y33104288D01*
X17185920Y32430000D01*
X17320044Y31755712D01*
X17701998Y31184078D01*
X17738033Y31160000D01*
X17701998Y31135922D01*
X17320044Y30564288D01*
X17185920Y29890000D01*
X17320044Y29215712D01*
X17701998Y28644078D01*
X17738033Y28620000D01*
X17701998Y28595922D01*
X17320044Y28024288D01*
X17185920Y27350000D01*
X17320044Y26675712D01*
X17701998Y26104078D01*
X18273632Y25722124D01*
X18947920Y25588000D01*
X20012080Y25588000D01*
X20686368Y25722124D01*
X21258002Y26104078D01*
X21639956Y26675712D01*
X21774080Y27350000D01*
X21639956Y28024288D01*
X21328777Y28490000D01*
X26490000Y28490000D01*
X27025757Y28596569D01*
X27479949Y28900051D01*
X36789949Y38210050D01*
X37093431Y38664243D01*
X37121246Y38804078D01*
X37200000Y39200000D01*
X37200000Y43420102D01*
X38679899Y44900000D01*
X39254070Y44900000D01*
X39216809Y44716000D01*
X39216809Y42684000D01*
X39286538Y42313422D01*
X39505549Y41973069D01*
X39700000Y41840206D01*
X39700000Y37279899D01*
X35620172Y33200070D01*
X35323725Y33200329D01*
X34625143Y32911681D01*
X34090198Y32377669D01*
X33800331Y31679591D01*
X33799671Y30923725D01*
X34088319Y30225143D01*
X34622331Y29690198D01*
X35320409Y29400331D01*
X36076275Y29399671D01*
X36774857Y29688319D01*
X36986908Y29900000D01*
X41420102Y29900000D01*
X47616774Y23703327D01*
X47413092Y23500000D01*
X34690526Y23500000D01*
X34411681Y24174857D01*
X33877669Y24709802D01*
X33179591Y24999669D01*
X32423725Y25000329D01*
X31725143Y24711681D01*
X31190198Y24177669D01*
X30900331Y23479591D01*
X30899671Y22723725D01*
X31188319Y22025143D01*
X31722331Y21490198D01*
X32420409Y21200331D01*
X32720032Y21200069D01*
X32810051Y21110050D01*
X33264244Y20806568D01*
X33800000Y20700000D01*
X47412895Y20700000D01*
X47622331Y20490198D01*
X48320409Y20200331D01*
X49076275Y20199671D01*
X49774857Y20488319D01*
X49961003Y20674140D01*
X50620409Y20400331D01*
X51376275Y20399671D01*
X52074857Y20688319D01*
X52600000Y21212546D01*
X52600000Y1275000D01*
X1275000Y1275000D01*
X1275000Y13897139D01*
X1465901Y13705904D01*
X1832451Y13553699D01*
X1834633Y13552241D01*
X1837184Y13551734D01*
X2200532Y13400858D01*
X2597427Y13400512D01*
X2600000Y13400000D01*
X9971572Y13400000D01*
X12285786Y11085787D01*
X12934633Y10652241D01*
X13700000Y10500000D01*
X14465366Y10652241D01*
X15114213Y11085787D01*
X15268036Y11316000D01*
X17264409Y11316000D01*
X17264409Y9284000D01*
X17334138Y8913422D01*
X17553149Y8573069D01*
X17582571Y8552966D01*
X17573069Y8546851D01*
X17344738Y8212678D01*
X17264409Y7816000D01*
X17264409Y5784000D01*
X17334138Y5413422D01*
X17553149Y5073069D01*
X17887322Y4844738D01*
X18284000Y4764409D01*
X20316000Y4764409D01*
X20686578Y4834138D01*
X21026931Y5053149D01*
X21255262Y5387322D01*
X21335591Y5784000D01*
X21335591Y7816000D01*
X21265862Y8186578D01*
X21046851Y8526931D01*
X21017429Y8547034D01*
X21026931Y8553149D01*
X21255262Y8887322D01*
X21335591Y9284000D01*
X21335591Y11316000D01*
X21265862Y11686578D01*
X21046851Y12026931D01*
X20712678Y12255262D01*
X20316000Y12335591D01*
X18284000Y12335591D01*
X17913422Y12265862D01*
X17573069Y12046851D01*
X17344738Y11712678D01*
X17264409Y11316000D01*
X15268036Y11316000D01*
X15547759Y11734634D01*
X15700000Y12500000D01*
X15547759Y13265367D01*
X15114213Y13914214D01*
X12214214Y16814214D01*
X11565367Y17247759D01*
X10800000Y17400001D01*
X10799995Y17400000D01*
X2600000Y17400000D01*
X2597450Y17399493D01*
X2204022Y17399836D01*
X1837207Y17248271D01*
X1834633Y17247759D01*
X1832470Y17246314D01*
X1468860Y17096073D01*
X1275000Y16902551D01*
X1275000Y21517139D01*
X1465901Y21325904D01*
X2200532Y21020858D01*
X2995978Y21020164D01*
X3731140Y21323927D01*
X4294096Y21885901D01*
X4599142Y22620532D01*
X4599836Y23415978D01*
X4296073Y24151140D01*
X3734099Y24714096D01*
X2999468Y25019142D01*
X2204022Y25019836D01*
X1468860Y24716073D01*
X1275000Y24522551D01*
X1275000Y25200000D01*
X11600000Y25200000D01*
X11781729Y25234195D01*
X11948635Y25341596D01*
X12060607Y25505472D01*
X12100000Y25700000D01*
X12100000Y26647250D01*
X12134138Y26465822D01*
X12353149Y26125469D01*
X12687322Y25897138D01*
X13084000Y25816809D01*
X15116000Y25816809D01*
X15486578Y25886538D01*
X15826931Y26105549D01*
X16055262Y26439722D01*
X16135591Y26836400D01*
X16135591Y28563600D01*
X16065862Y28934178D01*
X15846851Y29274531D01*
X15845619Y29275373D01*
X16013638Y29526831D01*
X16155496Y30240000D01*
X16013638Y30953169D01*
X15609660Y31557764D01*
X15005065Y31961742D01*
X14291896Y32103600D01*
X13908104Y32103600D01*
X13194935Y31961742D01*
X12590340Y31557764D01*
X12186362Y30953169D01*
X12100000Y30518997D01*
X12100000Y36697629D01*
X12101039Y37888238D01*
X12100000Y37890753D01*
X12100000Y40050000D01*
X17185920Y40050000D01*
X17320044Y39375712D01*
X17701998Y38804078D01*
X18273632Y38422124D01*
X18947920Y38288000D01*
X20012080Y38288000D01*
X20686368Y38422124D01*
X21258002Y38804078D01*
X21639956Y39375712D01*
X21774080Y40050000D01*
X21639956Y40724288D01*
X21258002Y41295922D01*
X20686368Y41677876D01*
X20012080Y41812000D01*
X18947920Y41812000D01*
X18273632Y41677876D01*
X17701998Y41295922D01*
X17320044Y40724288D01*
X17185920Y40050000D01*
X12100000Y40050000D01*
X12100000Y46700000D01*
X12065805Y46881729D01*
X11973613Y47025000D01*
X36845101Y47025000D01*
X34810051Y44989949D01*
X34810051Y44989949D01*
G37*
X34810051Y44989949D02*
X34506569Y44535757D01*
X34400000Y44000000D01*
X34400000Y39779899D01*
X25910102Y31290000D01*
X21328777Y31290000D01*
X21639956Y31755712D01*
X21774080Y32430000D01*
X21639956Y33104288D01*
X21258002Y33675922D01*
X21221967Y33700000D01*
X21258002Y33724078D01*
X21639956Y34295712D01*
X21774080Y34970000D01*
X21639956Y35644288D01*
X21258002Y36215922D01*
X20686368Y36597876D01*
X20012080Y36732000D01*
X18947920Y36732000D01*
X18273632Y36597876D01*
X17701998Y36215922D01*
X17320044Y35644288D01*
X17185920Y34970000D01*
X17320044Y34295712D01*
X17701998Y33724078D01*
X17738033Y33700000D01*
X17701998Y33675922D01*
X17320044Y33104288D01*
X17185920Y32430000D01*
X17320044Y31755712D01*
X17701998Y31184078D01*
X17738033Y31160000D01*
X17701998Y31135922D01*
X17320044Y30564288D01*
X17185920Y29890000D01*
X17320044Y29215712D01*
X17701998Y28644078D01*
X17738033Y28620000D01*
X17701998Y28595922D01*
X17320044Y28024288D01*
X17185920Y27350000D01*
X17320044Y26675712D01*
X17701998Y26104078D01*
X18273632Y25722124D01*
X18947920Y25588000D01*
X20012080Y25588000D01*
X20686368Y25722124D01*
X21258002Y26104078D01*
X21639956Y26675712D01*
X21774080Y27350000D01*
X21639956Y28024288D01*
X21328777Y28490000D01*
X26490000Y28490000D01*
X27025757Y28596569D01*
X27479949Y28900051D01*
X36789949Y38210050D01*
X37093431Y38664243D01*
X37121246Y38804078D01*
X37200000Y39200000D01*
X37200000Y43420102D01*
X38679899Y44900000D01*
X39254070Y44900000D01*
X39216809Y44716000D01*
X39216809Y42684000D01*
X39286538Y42313422D01*
X39505549Y41973069D01*
X39700000Y41840206D01*
X39700000Y37279899D01*
X35620172Y33200070D01*
X35323725Y33200329D01*
X34625143Y32911681D01*
X34090198Y32377669D01*
X33800331Y31679591D01*
X33799671Y30923725D01*
X34088319Y30225143D01*
X34622331Y29690198D01*
X35320409Y29400331D01*
X36076275Y29399671D01*
X36774857Y29688319D01*
X36986908Y29900000D01*
X41420102Y29900000D01*
X47616774Y23703327D01*
X47413092Y23500000D01*
X34690526Y23500000D01*
X34411681Y24174857D01*
X33877669Y24709802D01*
X33179591Y24999669D01*
X32423725Y25000329D01*
X31725143Y24711681D01*
X31190198Y24177669D01*
X30900331Y23479591D01*
X30899671Y22723725D01*
X31188319Y22025143D01*
X31722331Y21490198D01*
X32420409Y21200331D01*
X32720032Y21200069D01*
X32810051Y21110050D01*
X33264244Y20806568D01*
X33800000Y20700000D01*
X47412895Y20700000D01*
X47622331Y20490198D01*
X48320409Y20200331D01*
X49076275Y20199671D01*
X49774857Y20488319D01*
X49961003Y20674140D01*
X50620409Y20400331D01*
X51376275Y20399671D01*
X52074857Y20688319D01*
X52600000Y21212546D01*
X52600000Y1275000D01*
X1275000Y1275000D01*
X1275000Y13897139D01*
X1465901Y13705904D01*
X1832451Y13553699D01*
X1834633Y13552241D01*
X1837184Y13551734D01*
X2200532Y13400858D01*
X2597427Y13400512D01*
X2600000Y13400000D01*
X9971572Y13400000D01*
X12285786Y11085787D01*
X12934633Y10652241D01*
X13700000Y10500000D01*
X14465366Y10652241D01*
X15114213Y11085787D01*
X15268036Y11316000D01*
X17264409Y11316000D01*
X17264409Y9284000D01*
X17334138Y8913422D01*
X17553149Y8573069D01*
X17582571Y8552966D01*
X17573069Y8546851D01*
X17344738Y8212678D01*
X17264409Y7816000D01*
X17264409Y5784000D01*
X17334138Y5413422D01*
X17553149Y5073069D01*
X17887322Y4844738D01*
X18284000Y4764409D01*
X20316000Y4764409D01*
X20686578Y4834138D01*
X21026931Y5053149D01*
X21255262Y5387322D01*
X21335591Y5784000D01*
X21335591Y7816000D01*
X21265862Y8186578D01*
X21046851Y8526931D01*
X21017429Y8547034D01*
X21026931Y8553149D01*
X21255262Y8887322D01*
X21335591Y9284000D01*
X21335591Y11316000D01*
X21265862Y11686578D01*
X21046851Y12026931D01*
X20712678Y12255262D01*
X20316000Y12335591D01*
X18284000Y12335591D01*
X17913422Y12265862D01*
X17573069Y12046851D01*
X17344738Y11712678D01*
X17264409Y11316000D01*
X15268036Y11316000D01*
X15547759Y11734634D01*
X15700000Y12500000D01*
X15547759Y13265367D01*
X15114213Y13914214D01*
X12214214Y16814214D01*
X11565367Y17247759D01*
X10800000Y17400001D01*
X10799995Y17400000D01*
X2600000Y17400000D01*
X2597450Y17399493D01*
X2204022Y17399836D01*
X1837207Y17248271D01*
X1834633Y17247759D01*
X1832470Y17246314D01*
X1468860Y17096073D01*
X1275000Y16902551D01*
X1275000Y21517139D01*
X1465901Y21325904D01*
X2200532Y21020858D01*
X2995978Y21020164D01*
X3731140Y21323927D01*
X4294096Y21885901D01*
X4599142Y22620532D01*
X4599836Y23415978D01*
X4296073Y24151140D01*
X3734099Y24714096D01*
X2999468Y25019142D01*
X2204022Y25019836D01*
X1468860Y24716073D01*
X1275000Y24522551D01*
X1275000Y25200000D01*
X11600000Y25200000D01*
X11781729Y25234195D01*
X11948635Y25341596D01*
X12060607Y25505472D01*
X12100000Y25700000D01*
X12100000Y26647250D01*
X12134138Y26465822D01*
X12353149Y26125469D01*
X12687322Y25897138D01*
X13084000Y25816809D01*
X15116000Y25816809D01*
X15486578Y25886538D01*
X15826931Y26105549D01*
X16055262Y26439722D01*
X16135591Y26836400D01*
X16135591Y28563600D01*
X16065862Y28934178D01*
X15846851Y29274531D01*
X15845619Y29275373D01*
X16013638Y29526831D01*
X16155496Y30240000D01*
X16013638Y30953169D01*
X15609660Y31557764D01*
X15005065Y31961742D01*
X14291896Y32103600D01*
X13908104Y32103600D01*
X13194935Y31961742D01*
X12590340Y31557764D01*
X12186362Y30953169D01*
X12100000Y30518997D01*
X12100000Y36697629D01*
X12101039Y37888238D01*
X12100000Y37890753D01*
X12100000Y40050000D01*
X17185920Y40050000D01*
X17320044Y39375712D01*
X17701998Y38804078D01*
X18273632Y38422124D01*
X18947920Y38288000D01*
X20012080Y38288000D01*
X20686368Y38422124D01*
X21258002Y38804078D01*
X21639956Y39375712D01*
X21774080Y40050000D01*
X21639956Y40724288D01*
X21258002Y41295922D01*
X20686368Y41677876D01*
X20012080Y41812000D01*
X18947920Y41812000D01*
X18273632Y41677876D01*
X17701998Y41295922D01*
X17320044Y40724288D01*
X17185920Y40050000D01*
X12100000Y40050000D01*
X12100000Y46700000D01*
X12065805Y46881729D01*
X11973613Y47025000D01*
X36845101Y47025000D01*
X34810051Y44989949D01*
G36*
X44458258Y44605065D02*
X44316400Y43891896D01*
X44316400Y43508104D01*
X44458258Y42794935D01*
X44862236Y42190340D01*
X45466831Y41786362D01*
X46180000Y41644504D01*
X46893169Y41786362D01*
X47450000Y42158425D01*
X48006831Y41786362D01*
X48720000Y41644504D01*
X49433169Y41786362D01*
X49990000Y42158425D01*
X50546831Y41786362D01*
X51260000Y41644504D01*
X51973169Y41786362D01*
X52577764Y42190340D01*
X52600000Y42223618D01*
X52600000Y23386558D01*
X52077669Y23909802D01*
X51379591Y24199669D01*
X51079968Y24199931D01*
X42989949Y32289949D01*
X42780348Y32430000D01*
X42535757Y32593431D01*
X42000000Y32700000D01*
X41375587Y32700000D01*
X41235757Y32793431D01*
X40700000Y32900000D01*
X40164244Y32793431D01*
X40024414Y32700000D01*
X39079898Y32700000D01*
X42089949Y35710050D01*
X42393431Y36164243D01*
X42403711Y36215922D01*
X42500000Y36700000D01*
X42500000Y41840841D01*
X42674531Y41953149D01*
X42902862Y42287322D01*
X42983191Y42684000D01*
X42983191Y44716000D01*
X42948569Y44900000D01*
X44655328Y44900000D01*
X44458258Y44605065D01*
X44458258Y44605065D01*
G37*
X44458258Y44605065D02*
X44316400Y43891896D01*
X44316400Y43508104D01*
X44458258Y42794935D01*
X44862236Y42190340D01*
X45466831Y41786362D01*
X46180000Y41644504D01*
X46893169Y41786362D01*
X47450000Y42158425D01*
X48006831Y41786362D01*
X48720000Y41644504D01*
X49433169Y41786362D01*
X49990000Y42158425D01*
X50546831Y41786362D01*
X51260000Y41644504D01*
X51973169Y41786362D01*
X52577764Y42190340D01*
X52600000Y42223618D01*
X52600000Y23386558D01*
X52077669Y23909802D01*
X51379591Y24199669D01*
X51079968Y24199931D01*
X42989949Y32289949D01*
X42780348Y32430000D01*
X42535757Y32593431D01*
X42000000Y32700000D01*
X41375587Y32700000D01*
X41235757Y32793431D01*
X40700000Y32900000D01*
X40164244Y32793431D01*
X40024414Y32700000D01*
X39079898Y32700000D01*
X42089949Y35710050D01*
X42393431Y36164243D01*
X42403711Y36215922D01*
X42500000Y36700000D01*
X42500000Y41840841D01*
X42674531Y41953149D01*
X42902862Y42287322D01*
X42983191Y42684000D01*
X42983191Y44716000D01*
X42948569Y44900000D01*
X44655328Y44900000D01*
X44458258Y44605065D01*
M02*
