G04 #@! TF.FileFunction,Copper,L1,Top,Signal*
%FSLAX46Y46*%
G04 Gerber Fmt 4.6, Leading zero omitted, Abs format (unit mm)*
G04 Created by KiCad (PCBNEW 4.0.6) date Saturday, 10 September 2022 'PMt' 16:36:59*
%MOMM*%
%LPD*%
G01*
G04 APERTURE LIST*
%ADD10C,0.100000*%
%ADD11C,0.300000*%
%ADD12C,0.500000*%
%ADD13R,1.000000X1.600000*%
%ADD14R,1.250000X1.000000*%
%ADD15R,1.000000X1.250000*%
%ADD16R,0.600000X1.500000*%
%ADD17R,2.032000X1.727200*%
%ADD18O,2.032000X1.727200*%
%ADD19R,2.032000X2.032000*%
%ADD20O,2.032000X2.032000*%
%ADD21R,1.727200X2.032000*%
%ADD22O,1.727200X2.032000*%
%ADD23R,1.300000X0.700000*%
%ADD24R,3.800000X2.000000*%
%ADD25R,1.500000X2.000000*%
%ADD26O,2.500000X1.524000*%
%ADD27R,0.650000X1.060000*%
%ADD28R,1.524000X1.000000*%
%ADD29R,1.000000X1.524000*%
%ADD30C,10.000000*%
%ADD31R,1.198880X1.198880*%
%ADD32R,0.700000X1.300000*%
%ADD33C,1.998980*%
%ADD34C,1.800000*%
%ADD35C,0.800000*%
%ADD36C,0.700000*%
%ADD37C,2.000000*%
%ADD38C,1.000000*%
G04 APERTURE END LIST*
D10*
D11*
X23376190Y7695238D02*
X24519047Y7695238D01*
X23947619Y5695238D02*
X23947619Y7695238D01*
X25090476Y7504762D02*
X25185714Y7600000D01*
X25376191Y7695238D01*
X25852381Y7695238D01*
X26042857Y7600000D01*
X26138095Y7504762D01*
X26233334Y7314286D01*
X26233334Y7123810D01*
X26138095Y6838095D01*
X24995238Y5695238D01*
X26233334Y5695238D01*
X23376190Y11595238D02*
X24519047Y11595238D01*
X23947619Y9595238D02*
X23947619Y11595238D01*
X26233334Y9595238D02*
X25090476Y9595238D01*
X25661905Y9595238D02*
X25661905Y11595238D01*
X25471429Y11309524D01*
X25280953Y11119048D01*
X25090476Y11023810D01*
D12*
X50728571Y47595238D02*
X50728571Y45976190D01*
X50823810Y45785714D01*
X50919048Y45690476D01*
X51109524Y45595238D01*
X51490476Y45595238D01*
X51680952Y45690476D01*
X51776191Y45785714D01*
X51871429Y45976190D01*
X51871429Y47595238D01*
X48028571Y47595238D02*
X49171428Y47595238D01*
X48600000Y45595238D02*
X48600000Y47595238D01*
X46619048Y45595238D02*
X45952381Y46547619D01*
X45476190Y45595238D02*
X45476190Y47595238D01*
X46238095Y47595238D01*
X46428571Y47500000D01*
X46523810Y47404762D01*
X46619048Y47214286D01*
X46619048Y46928571D01*
X46523810Y46738095D01*
X46428571Y46642857D01*
X46238095Y46547619D01*
X45476190Y46547619D01*
X42738095Y46357143D02*
X44261905Y46357143D01*
X40338095Y46357143D02*
X41861905Y46357143D01*
X41100000Y45595238D02*
X41100000Y47119048D01*
D13*
X8800000Y23600000D03*
X11800000Y23600000D03*
D14*
X13800000Y20700000D03*
X13800000Y18700000D03*
D15*
X39100000Y29700000D03*
X37100000Y29700000D03*
D16*
X42290000Y30000000D03*
X43560000Y30000000D03*
X44830000Y30000000D03*
X46100000Y30000000D03*
X47370000Y30000000D03*
X48640000Y30000000D03*
X49910000Y30000000D03*
X49910000Y35400000D03*
X48640000Y35400000D03*
X47370000Y35400000D03*
X46100000Y35400000D03*
X44830000Y35400000D03*
X43560000Y35400000D03*
X42290000Y35400000D03*
D17*
X14100000Y27700000D03*
D18*
X14100000Y30240000D03*
X14100000Y32780000D03*
D19*
X19300000Y10300000D03*
D20*
X16760000Y10300000D03*
D19*
X19300000Y6800000D03*
D20*
X16760000Y6800000D03*
D21*
X41100000Y43700000D03*
D22*
X43640000Y43700000D03*
X46180000Y43700000D03*
X48720000Y43700000D03*
X51260000Y43700000D03*
D23*
X51100000Y41650000D03*
X51100000Y39750000D03*
X40600000Y29750000D03*
X40600000Y31650000D03*
X51900000Y29650000D03*
X51900000Y31550000D03*
D24*
X9100000Y14550000D03*
D25*
X9100000Y20850000D03*
X6800000Y20850000D03*
X11400000Y20850000D03*
D26*
X19480000Y34970000D03*
X19480000Y37510000D03*
X19480000Y40050000D03*
X19480000Y32430000D03*
X19480000Y29890000D03*
X19480000Y27350000D03*
D27*
X15750000Y14300000D03*
X16700000Y14300000D03*
X17650000Y14300000D03*
X17650000Y16500000D03*
X15750000Y16500000D03*
D28*
X41600000Y12850000D03*
X41600000Y14350000D03*
X41600000Y15850000D03*
X41600000Y17350000D03*
X41600000Y11350000D03*
X41600000Y9850000D03*
X41600000Y8350000D03*
X41600000Y6850000D03*
D29*
X43600000Y4350000D03*
X45100000Y4350000D03*
X46600000Y4350000D03*
X48100000Y4350000D03*
X49600000Y4350000D03*
X51100000Y4350000D03*
X52600000Y4350000D03*
X54100000Y4350000D03*
X54100000Y19850000D03*
X52600000Y19850000D03*
X51100000Y19850000D03*
X49600000Y19850000D03*
X48100000Y19850000D03*
X46600000Y19850000D03*
X45100000Y19850000D03*
X43600000Y19850000D03*
D30*
X6100000Y36700000D03*
X59100000Y36700000D03*
D31*
X43600000Y39349020D03*
X43600000Y37250980D03*
D32*
X42350000Y40900000D03*
X44250000Y40900000D03*
D33*
X2600000Y15400000D03*
X2600000Y23020000D03*
D34*
X55100000Y1900000D03*
X16800000Y20900000D03*
X57700000Y43200000D03*
X51000000Y22300000D03*
X35700000Y31300000D03*
X13700000Y12500000D03*
X32800000Y23100000D03*
X48700000Y22100000D03*
D35*
X54100000Y4350000D02*
X54100000Y2900000D01*
X54100000Y2900000D02*
X55100000Y1900000D01*
X42290000Y40840000D02*
X42290000Y38890000D01*
X42290000Y38890000D02*
X42290000Y35400000D01*
X42290000Y40840000D02*
X42350000Y40900000D01*
X42350000Y40900000D02*
X42350000Y41350000D01*
X42350000Y41350000D02*
X43640000Y42640000D01*
X43640000Y42640000D02*
X43640000Y43700000D01*
X13800000Y20700000D02*
X17300000Y20700000D01*
X26300000Y29700000D02*
X37100000Y29700000D01*
X17300000Y20700000D02*
X26300000Y29700000D01*
X13800000Y20700000D02*
X16600000Y20700000D01*
X16600000Y20700000D02*
X16800000Y20900000D01*
X16760000Y10300000D02*
X16760000Y12360000D01*
X16760000Y12360000D02*
X17200000Y12800000D01*
X16760000Y6800000D02*
X16760000Y10300000D01*
X42290000Y35400000D02*
X42290000Y36110000D01*
X42290000Y36110000D02*
X40890000Y37510000D01*
X40890000Y37510000D02*
X19480000Y37510000D01*
X19480000Y37510000D02*
X16610000Y37510000D01*
X14100000Y35000000D02*
X14100000Y32780000D01*
X16610000Y37510000D02*
X14100000Y35000000D01*
D36*
X16700000Y14300000D02*
X16700000Y13300000D01*
X16700000Y13300000D02*
X17200000Y12800000D01*
D35*
X16900000Y12800000D02*
X17200000Y12800000D01*
X11400000Y20850000D02*
X13650000Y20850000D01*
X13650000Y20850000D02*
X13800000Y20700000D01*
X11800000Y23600000D02*
X11800000Y21250000D01*
X11800000Y21250000D02*
X11400000Y20850000D01*
X43560000Y30000000D02*
X43560000Y27460010D01*
X20800000Y19200000D02*
X20800000Y11800000D01*
X20800000Y11800000D02*
X19300000Y10300000D01*
X20900000Y19200000D02*
X20800000Y19200000D01*
X27400000Y25700000D02*
X20900000Y19200000D01*
X28300010Y26600010D02*
X27400000Y25700000D01*
X42700000Y26600010D02*
X28300010Y26600010D01*
X43560000Y27460010D02*
X42700000Y26600010D01*
X43560000Y30000000D02*
X43560000Y31340000D01*
X43250000Y31650000D02*
X40600000Y31650000D01*
X43560000Y31340000D02*
X43250000Y31650000D01*
X44830000Y30000000D02*
X44830000Y26386864D01*
X21800002Y18685786D02*
X21800002Y7300002D01*
X21800002Y7300002D02*
X21300000Y6800000D01*
X21300000Y6800000D02*
X19300000Y6800000D01*
X28714224Y25600008D02*
X21800002Y18685786D01*
X44043144Y25600008D02*
X28714224Y25600008D01*
X44830000Y26386864D02*
X44043144Y25600008D01*
X44830000Y30000000D02*
X44830000Y31130000D01*
X45400000Y31700000D02*
X51750000Y31700000D01*
X44830000Y31130000D02*
X45400000Y31700000D01*
X51750000Y31700000D02*
X51900000Y31550000D01*
X48640000Y30000000D02*
X48640000Y25954216D01*
X40100002Y22600002D02*
X38300000Y20800000D01*
X45285786Y22600002D02*
X40100002Y22600002D01*
X48640000Y25954216D02*
X45285786Y22600002D01*
X48100000Y4350000D02*
X48100000Y3185784D01*
X38300000Y3500000D02*
X38300000Y20800000D01*
X40100002Y1699998D02*
X38300000Y3500000D01*
X46614214Y1699998D02*
X40100002Y1699998D01*
X48100000Y3185784D02*
X46614214Y1699998D01*
X39500000Y20000000D02*
X39500000Y20200000D01*
X39500000Y4600000D02*
X39500000Y20000000D01*
X49910000Y25810000D02*
X49910000Y30000000D01*
X45700000Y21600000D02*
X49910000Y25810000D01*
X40900000Y21600000D02*
X45700000Y21600000D01*
X39500000Y20200000D02*
X40900000Y21600000D01*
X39500000Y4600000D02*
X39500000Y4400002D01*
X46200000Y2700000D02*
X41200002Y2700000D01*
X46600000Y3100000D02*
X46600000Y4350000D01*
X46600000Y3100000D02*
X46200000Y2700000D01*
X39500000Y4400002D02*
X41200002Y2700000D01*
X39500000Y4600000D02*
X39500000Y4600000D01*
X42300000Y32899998D02*
X25499998Y32899998D01*
X49910000Y34110000D02*
X48699998Y32899998D01*
X48699998Y32899998D02*
X42300000Y32899998D01*
X49910000Y35400000D02*
X49910000Y34110000D01*
X25030000Y32430000D02*
X19480000Y32430000D01*
X25499998Y32899998D02*
X25030000Y32430000D01*
X38400000Y33900000D02*
X23900000Y33900000D01*
X19480000Y34970000D02*
X22830000Y34970000D01*
X48640000Y34340000D02*
X48200000Y33900000D01*
X48200000Y33900000D02*
X38400000Y33900000D01*
X48640000Y34340000D02*
X48640000Y35400000D01*
X23900000Y33900000D02*
X22830000Y34970000D01*
X47370000Y35400000D02*
X47370000Y36970000D01*
X50150000Y39750000D02*
X51100000Y39750000D01*
X47370000Y36970000D02*
X50150000Y39750000D01*
X46100000Y35400000D02*
X46100000Y37700000D01*
X48720000Y40320000D02*
X48720000Y43700000D01*
X46100000Y37700000D02*
X48720000Y40320000D01*
X44830000Y35400000D02*
X44830000Y38430000D01*
X46180000Y39780000D02*
X46180000Y43700000D01*
X44830000Y38430000D02*
X46180000Y39780000D01*
D37*
X6800000Y26800000D02*
X6380000Y26800000D01*
X6380000Y26800000D02*
X2600000Y23020000D01*
X6800000Y26800000D02*
X6800000Y36000000D01*
D35*
X6800000Y36000000D02*
X6100000Y36700000D01*
X14100000Y27700000D02*
X7600000Y27700000D01*
X6800000Y26900000D02*
X6800000Y26800000D01*
X7600000Y27700000D02*
X6800000Y26900000D01*
X19480000Y27350000D02*
X14450000Y27350000D01*
X14450000Y27350000D02*
X14100000Y27700000D01*
X59100000Y36700000D02*
X59100000Y41800000D01*
X59100000Y41800000D02*
X57700000Y43200000D01*
X19480000Y29890000D02*
X14450000Y29890000D01*
X14450000Y29890000D02*
X14100000Y30240000D01*
X51100000Y41650000D02*
X51100000Y43540000D01*
X51100000Y43540000D02*
X51260000Y43700000D01*
X39100000Y29700000D02*
X39100000Y28600000D01*
X18400000Y18700000D02*
X27300000Y27600000D01*
X18400000Y18700000D02*
X13800000Y18700000D01*
X27700000Y28000000D02*
X27300000Y27600000D01*
X38500000Y28000000D02*
X27700000Y28000000D01*
X39100000Y28600000D02*
X38500000Y28000000D01*
X39100000Y29700000D02*
X40550000Y29700000D01*
X40550000Y29700000D02*
X40600000Y29750000D01*
X51900000Y29650000D02*
X51900000Y23200000D01*
X51900000Y23200000D02*
X51000000Y22300000D01*
X53000000Y22300000D02*
X51000000Y22300000D01*
X54100000Y19850000D02*
X54100000Y21200000D01*
X54100000Y21200000D02*
X53000000Y22300000D01*
X38950000Y31500000D02*
X35900000Y31500000D01*
X35900000Y31500000D02*
X35700000Y31300000D01*
X41100000Y43700000D02*
X41100000Y41500000D01*
X41100000Y41500000D02*
X39650000Y40050000D01*
X39650000Y40050000D02*
X19480000Y40050000D01*
X15750000Y16500000D02*
X14500000Y16500000D01*
X14500000Y16500000D02*
X13800000Y17200000D01*
X13800000Y18700000D02*
X13800000Y17200000D01*
X13800000Y17200000D02*
X13800000Y15100000D01*
X13250000Y14550000D02*
X9100000Y14550000D01*
X13800000Y15100000D02*
X13250000Y14550000D01*
X9100000Y20850000D02*
X9100000Y14550000D01*
X38950000Y31500000D02*
X38950000Y29850000D01*
X38950000Y29850000D02*
X39100000Y29700000D01*
X39100000Y29700000D02*
X42100000Y29700000D01*
X42100000Y29700000D02*
X42290000Y30000000D01*
X39150000Y29650000D02*
X39100000Y29700000D01*
X13700000Y12500000D02*
X15300000Y12500000D01*
X15300000Y12500000D02*
X15750000Y12950000D01*
D37*
X6800000Y20850000D02*
X6800000Y22800000D01*
X7600000Y23600000D02*
X8800000Y23600000D01*
X6800000Y22800000D02*
X7600000Y23600000D01*
X2600000Y15400000D02*
X2600000Y18600000D01*
X4850000Y20850000D02*
X6800000Y20850000D01*
X2600000Y18600000D02*
X4850000Y20850000D01*
D36*
X15750000Y14300000D02*
X15750000Y12950000D01*
X15750000Y12950000D02*
X15750000Y12750000D01*
D35*
X44250000Y40900000D02*
X44250000Y39999020D01*
X44250000Y39999020D02*
X43600000Y39349020D01*
X43560000Y35400000D02*
X43560000Y37210980D01*
X43560000Y37210980D02*
X43600000Y37250980D01*
X46100000Y28371568D02*
X46100000Y26242648D01*
X34199996Y24499996D02*
X32800000Y23100000D01*
X46100000Y28371568D02*
X46100000Y30000000D01*
X34300006Y24600006D02*
X34199996Y24499996D01*
X44457358Y24600006D02*
X34300006Y24600006D01*
X46100000Y26242648D02*
X44457358Y24600006D01*
X46600000Y20900000D02*
X46600000Y19850000D01*
X47500000Y21800000D02*
X46600000Y20900000D01*
X48400000Y21800000D02*
X47500000Y21800000D01*
X48700000Y22100000D02*
X48400000Y21800000D01*
X51050000Y650000D02*
X51000004Y699996D01*
X51000004Y699996D02*
X51099996Y699996D01*
X52600000Y2200000D02*
X52600000Y4350000D01*
X51099996Y699996D02*
X52600000Y2200000D01*
X47370000Y30000000D02*
X47370000Y26098432D01*
X51050000Y650000D02*
X51100000Y600000D01*
X39685788Y699996D02*
X51000004Y699996D01*
X37299998Y3085786D02*
X39685788Y699996D01*
X37299998Y21214214D02*
X37299998Y3085786D01*
X39685788Y23600004D02*
X37299998Y21214214D01*
X44871572Y23600004D02*
X39685788Y23600004D01*
X47370000Y26098432D02*
X44871572Y23600004D01*
D38*
G36*
X14800000Y15616146D02*
X14714069Y15560851D01*
X14485738Y15226678D01*
X14405409Y14830000D01*
X14405409Y14327193D01*
X14400000Y14300000D01*
X14400000Y14266624D01*
X14079591Y14399669D01*
X13323725Y14400329D01*
X12625143Y14111681D01*
X12090198Y13577669D01*
X11800331Y12879591D01*
X11799671Y12123725D01*
X12088319Y11425143D01*
X12622331Y10890198D01*
X13320409Y10600331D01*
X14076275Y10599671D01*
X14774857Y10888319D01*
X14800000Y10913418D01*
X14800000Y10621027D01*
X14744000Y10339496D01*
X14744000Y10260504D01*
X14800000Y9978973D01*
X14800000Y7121027D01*
X14744000Y6839496D01*
X14744000Y6760504D01*
X14800000Y6478973D01*
X14800000Y1275000D01*
X1275000Y1275000D01*
X1275000Y13897139D01*
X1465901Y13705904D01*
X1832451Y13553699D01*
X1834633Y13552241D01*
X1837184Y13551734D01*
X2200532Y13400858D01*
X2597427Y13400512D01*
X2600000Y13400000D01*
X2602550Y13400507D01*
X2995978Y13400164D01*
X3362793Y13551729D01*
X3365367Y13552241D01*
X3367530Y13553686D01*
X3731140Y13703927D01*
X4012029Y13984326D01*
X4014214Y13985786D01*
X4015661Y13987952D01*
X4294096Y14265901D01*
X4446301Y14632451D01*
X4447759Y14634633D01*
X4448266Y14637184D01*
X4599142Y15000532D01*
X4599488Y15397427D01*
X4600000Y15400000D01*
X4600000Y17771572D01*
X5128428Y18300000D01*
X14800000Y18300000D01*
X14800000Y15616146D01*
X14800000Y15616146D01*
G37*
X14800000Y15616146D02*
X14714069Y15560851D01*
X14485738Y15226678D01*
X14405409Y14830000D01*
X14405409Y14327193D01*
X14400000Y14300000D01*
X14400000Y14266624D01*
X14079591Y14399669D01*
X13323725Y14400329D01*
X12625143Y14111681D01*
X12090198Y13577669D01*
X11800331Y12879591D01*
X11799671Y12123725D01*
X12088319Y11425143D01*
X12622331Y10890198D01*
X13320409Y10600331D01*
X14076275Y10599671D01*
X14774857Y10888319D01*
X14800000Y10913418D01*
X14800000Y10621027D01*
X14744000Y10339496D01*
X14744000Y10260504D01*
X14800000Y9978973D01*
X14800000Y7121027D01*
X14744000Y6839496D01*
X14744000Y6760504D01*
X14800000Y6478973D01*
X14800000Y1275000D01*
X1275000Y1275000D01*
X1275000Y13897139D01*
X1465901Y13705904D01*
X1832451Y13553699D01*
X1834633Y13552241D01*
X1837184Y13551734D01*
X2200532Y13400858D01*
X2597427Y13400512D01*
X2600000Y13400000D01*
X2602550Y13400507D01*
X2995978Y13400164D01*
X3362793Y13551729D01*
X3365367Y13552241D01*
X3367530Y13553686D01*
X3731140Y13703927D01*
X4012029Y13984326D01*
X4014214Y13985786D01*
X4015661Y13987952D01*
X4294096Y14265901D01*
X4446301Y14632451D01*
X4447759Y14634633D01*
X4448266Y14637184D01*
X4599142Y15000532D01*
X4599488Y15397427D01*
X4600000Y15400000D01*
X4600000Y17771572D01*
X5128428Y18300000D01*
X14800000Y18300000D01*
X14800000Y15616146D01*
M02*
