M48
METRIC,TZ
T1C0.762
T2C1.000
T3C1.001
T4C1.016
T5C5.000
%
G90
G05
T1
X19480Y40050
X19480Y37510
X19480Y34970
X19480Y32430
X19480Y29890
X19480Y27350
T2
X13700Y12500
X16800Y20900
X32800Y23100
X35700Y31300
X48700Y22100
X51000Y22300
X55100Y1900
X57700Y43200
T3
X2600Y23020
X2600Y15400
T4
X14100Y32780
X14100Y30240
X14100Y27700
X16760Y10300
X16760Y6800
X19300Y10300
X19300Y6800
X41100Y43700
X43640Y43700
X46180Y43700
X48720Y43700
X51260Y43700
T5
X6100Y36700
X59100Y36700
T0
M30
